<?xml version="1.0" encoding="UTF-8"?>
<svg id="Camada_1" data-name="Camada 1" xmlns="http://www.w3.org/2000/svg" viewBox="0 0 652.65 525">
  <defs>
    <style>
      .cls-1 {
        fill: #f7eeeb;
      }

      .cls-2 {
        fill: #e64e10;
      }
    </style>
  </defs>
  <rect class="cls-2" x="361.46" y="42.93" width="70.1" height="70.1"/>
  <path class="cls-1" d="M171.34,113.02c-13.09,0-25.51,2.09-37.12,5.98h0c-2.28.76-4.58,1.48-6.79,2.39-13.46,5.55-25.39,13.33-35.43,23.12-4.3,4.19-8.12,8.76-11.63,13.56h0c-4.75,6.5-8.84,13.47-12.06,20.98-5.62,13.13-8.47,27.32-8.47,42.16s2.82,29.09,8.37,42.6c5.57,13.52,13.52,25.51,23.62,35.59,8.92,8.93,19.39,16.26,31.02,22.01,1.34.67,2.63,1.4,4.01,2.03,1.09.49,2.24.84,3.34,1.29,12.74,5.22,26.53,8,41.15,8h22.83c-14.91-22.89-30.43-46.7-45.72-70.17h0l-.13-.19c-4.32-6.63-8.58-13.17-12.7-19.79-.93-1.57-1.76-3.19-2.45-4.9-.63-1.57-1.21-3.16-1.64-4.8-1-3.8-1.49-7.73-1.49-11.57,0-3.09.4-5.85.95-8.51.19-.63.29-1.27.5-1.89.69-2.85,1.73-5.47,3.03-7.93,1.7-3.22,3.9-6.16,6.81-8.79,1.99-1.8,4.1-3.37,6.32-4.71,6.7-4.02,14.47-6,23.54-6,1.69,0,3.38-.02,5.07-.03,3.88-.03,7.77-.06,11.66-.06h173.76v-70.36h-190.33ZM148.1,262.45v-.09h.02s.04.06.06.09h-.08ZM135.35,242.42c.04.07.08.14.11.22.29.54.52,1.11.87,1.62-.4-.61-.8-1.22-1.2-1.84h.22Z"/>
  <path class="cls-1" d="M136.33,244.26c-.35-.52-.57-1.08-.87-1.62-.05-.07-.09-.14-.14-.22h-.19c.4.61.8,1.23,1.2,1.84Z"/>
  <path class="cls-1" d="M135.35,242.42h-.02c.05.07.09.14.14.22-.04-.07-.07-.15-.11-.22Z"/>
  <path class="cls-1" d="M148.12,262.36h-.02v.09h.08s-.04-.06-.06-.09Z"/>
  <path class="cls-1" d="M353.72,331.28c-5.57-13.52-13.52-25.51-23.62-35.59-8.92-8.93-19.39-16.26-31.02-22.01-1.34-.67-2.64-1.4-4.01-2.03-1.09-.49-2.24-.84-3.34-1.29-12.74-5.22-26.53-8-41.15-8h-22.83c11.31,17.35,22.67,34.79,34.03,52.23,4.13,6.33,8.26,12.67,12.39,19,2.97,4.51,6.07,8.94,8.93,13.52.52.83,1.03,1.68,1.54,2.53,2.39,3.97,4.56,8.09,5.75,12.57,1,3.8,1.49,7.73,1.49,11.57,0,3.09-.4,5.85-.95,8.51-.18.63-.29,1.27-.5,1.89-.69,2.85-1.73,5.47-3.03,7.93-1.7,3.22-3.9,6.16-6.81,8.79-1.99,1.8-4.1,3.37-6.32,4.71-6.7,4.02-14.47,6-23.54,6-1.55,0-3.1.03-4.64.05-.17,0-.33,0-.5,0-3.35.04-6.71.04-10.06.04H60.26v70.36h190.33c13.05,0,25.43-2.08,37.01-5.95.04-.01.08-.02.11-.03,2.28-.76,4.58-1.48,6.79-2.39,13.46-5.55,25.39-13.33,35.43-23.12,4.3-4.19,8.12-8.76,11.63-13.56.02-.02.03-.05.04-.07,4.73-6.48,8.81-13.43,12.02-20.91,5.62-13.13,8.47-27.32,8.47-42.16s-2.82-29.09-8.37-42.6Z"/>
  <path class="cls-2" d="M261.79,314.59c-11.52-17.65-22.95-35.19-34-52.13h-79.4c15.33,23.53,30.57,46.93,45.79,70.28h79.44c-3.96-6.07-7.88-12.08-11.82-18.14Z"/>
  <path class="cls-2" d="M134.22,119c-2.51-3.85-3.9-5.98-3.9-5.98H51c7.93,12.17,17.98,27.58,29.36,45.06,3.51-4.8,7.33-9.37,11.63-13.56,10.05-9.79,21.97-17.57,35.43-23.12,2.21-.91,4.51-1.63,6.79-2.39h0Z"/>
  <path class="cls-2" d="M341.61,436.95s-.03.05-.04.07c-3.51,4.8-7.33,9.37-11.63,13.56-10.05,9.79-21.97,17.57-35.43,23.12-2.21.91-4.51,1.63-6.79,2.39-.04.01-.08.02-.11.03,2.09,3.21,3.33,5.11,3.33,5.11,0,0,48.24,0,79.58,0-8.61-13.2-18.39-28.19-28.89-44.28Z"/>
  <path class="cls-2" d="M361.46,113.02h0s164.13,251.67,240.18,368.21c-31.34,0-79.58,0-79.58,0,0,0-179.63-275.72-239.92-368.21,26.44,0,52.88,0,79.32,0ZM589.61,481.24,519.51,355.36"/>
  <path class="cls-2" d="M361.46,113.02h0s164.13,251.67,240.18,368.21c-31.34,0-79.58,0-79.58,0,0,0-179.63-275.72-239.92-368.21,26.44,0,52.88,0,79.32,0ZM589.61,481.24,519.51,355.36"/>
</svg>